<?xml version="1.0" encoding="utf-8"?>
<!-- Generator: Adobe Illustrator 27.5.0, SVG Export Plug-In . SVG Version: 6.00 Build 0)  -->
<svg version="1.1" id="Layer_1" xmlns="http://www.w3.org/2000/svg" xmlns:xlink="http://www.w3.org/1999/xlink" x="0px" y="0px"
	 viewBox="0 0 1024 1024" style="enable-background:new 0 0 1024 1024;" xml:space="preserve">
<g id="artwork_1_">
	<path d="M395.617,115.516c92.329-34.914,197.23-38.985,290.743-6.107c75.145,27.24,143.454,77.043,187.521,144.243
		c12.251,17.272,14.114,40.058,6.602,59.637c28.894,18.27,57.526,38.885,78.031,66.643c16.173,22.75,22.242,51.483,20.257,79.056
		c-3.491,47.732-23.736,94.956-58.169,128.513c-3.861,3.332-11.264,10.093-15.52,4.664c10.931-30.854,9.795-64.83,1.567-96.179
		c-33.877,8.204-68.729-1.851-100.793-12.671c-37.072,18.395-72.517,41.909-99.57,73.602
		c-38.184,44.869-52.606,107.529-40.318,164.907c10.572,50.866,37.714,96.129,65.448,139.321
		c-30.213-28.622-62.574-56.973-81.646-94.674c-35.012-71.948-19.32-162.39,29.657-224.1c21.862-27.128,49.545-49.138,79.29-67.051
		c-14.064-2.652-28.264-4.947-42.044-8.871c16.211-2.208,32.569-3.454,48.78-5.785c-35.48-23.046-76.181-36.492-116.708-47.547
		c75.898,6.353,149.413,27.845,220.498,54.344c-41.366-25.476-88.974-38.811-135.928-49.853
		c-27.425-6.107-55.072-11.757-83.151-13.743c-27.042-2.024-55.207,6.748-75.045,25.549c15.717-28.893,49.225-43.389,81.214-41.564
		c34.334,2.357,68.358,8.328,102.161,14.571c28.29,10.301,56.652,21.244,86.581,25.87c16.111,2.739,33.569,4.169,46.916,14.644
		c13.424,9.561,20.925,24.735,26.771,39.663c-3.527-27.204-24.833-52.21-52.863-55.48c-43.277-4.835-85.123-18.542-124.737-36.147
		c29.398,2.184,59.278,2.456,88.345-3.158c12.484-2.715,25.722-6.293,35.085-15.52c11.72-11.178,9.302-30.843,22.86-40.65
		c-22.86-17.012-47.262-31.965-73.232-43.747c-15.582,31.311-63.843,18.555-79.979,47.818c-1.21,28.042-29.412,43.117-54.394,45.338
		c-29.337,2.135-60.191-0.148-87.604,12.584c-22.341,9.672-39.033,29.72-46.693,52.58c-1.001-28.819,17.431-55.923,44.127-66.372
		c24.441-10.474,51.422-11.979,77.638-13.164c22.428-1.086,42.894-16.717,50.469-37.738c-17.715,23.97-49.039,32.741-77.463,34.9
		c-26.622,2.172-50.963-10.844-72.626-24.76c-19.704-13.04-42.39-20.43-65.141-26.129c-46.139-11.03-93.389-16.866-140.689-19.826
		c46.547-9.684,93.538-17.346,140.665-23.724c13.324-1.912,25.352-8.735,36.345-16.162c-16.224,2.505-34.235,1.777-48.435-7.229
		c-5.502-3.874,0.198-9.684,4.244-11.831c22.193-13.743,46.769-25.081,73.011-27.635c23.587-1.814,44.905,10.079,65.188,20.43
		c42.02,21.886,87.234,38.836,134.508,44.438c10.056,1.541,27.29,2.75,28.475-11.116c0.086-23.773-17.013-42.883-31.656-59.883
		c22.761,17.21,43.413,39.441,52.913,66.78c1.073,9.832,11.412,13.435,18.098,19.023c5.737,3.492,13.373,10.228,20.072,5.293
		c7.438-9.043,0.346-20.738-5.428-28.596c-53.825-74.762-137.667-126.318-227.863-143.725
		c-71.035-14.447-145.426-5.934-213.798,16.445c49.397-11.017,100.422-17.111,150.979-12.066
		c-67.853,7.822-134.485,27.66-194.96,59.514c43.809-9.623,90.405-8.759,133.164,5.379c8.13,3.257,17.962,5.737,22.577,13.904
		c-1.58,1.061-3.096,2.294-4.936,2.862c-78.117,17.297-152.865,49.163-220.484,91.787c12.239-1.542,26.339-4.059,37.468,2.628
		c5.823,4.403-1.407,9.807-5.552,11.93c-50.569,25.216-99.127,56.649-137.742,98.275c68.864-45.314,144.898-80.018,224.704-100.855
		c-29.251,14.62-57.527,31.176-84.717,49.348c-53.023,35.556-105.924,73.677-146.142,123.826
		c59.513-50.594,131.412-87.357,207.617-104.678c-52.482,24.205-101.261,57.218-142.022,98.276
		c47.114-30.484,99.2-54.863,154.643-65.163c-47.671,30.583-93.367,65.163-132.203,106.542
		c48.768-33.902,104.579-58.268,163.069-69.062c-51.432,24.044-97.905,58.958-136.064,100.915
		c62.314-44.029,135.335-72.331,210.195-86.023c-65.188,31.063-127.514,74.921-167.46,136.112
		c64.361-56.726,146.562-90.899,230.896-103.865c-47.262,25.044-89.405,59.785-123.405,101.04
		c64.682-44.339,142.232-66.459,219.732-73.553c6.687-0.296,13.843-2.505,20.172,0.629c-5.578,6.909-14.671,8.871-22.393,12.387
		c-64.102,26.08-123.319,70.172-157.11,131.598c-16.482,29.67-26.13,62.808-29.719,96.475c-4.047-23.6-3.875-47.88-0.543-71.566
		c-17.001,20.479-24.637,47.498-24.34,73.836c-0.223,70.777,45.622,138.051,111.451,164.031
		c-101.668-6.724-188.285-103.05-185.411-204.829c-20.443,31.002-20.159,71.381-9.093,105.727
		c14.941,46.856,52.247,83.35,94.846,106.109c-40.415-8.869-78.179-29.707-106.479-59.957
		c-42.428-45.461-63.733-109.428-59.082-171.211c-18.9,18.222-26.265,45.548-25.179,71.196
		c1.665,55.96,33.408,105.986,72.306,144.206c-36.715-19.517-66.138-50.285-90.726-83.349
		c-47.978-64.46-74.145-148.745-56.293-228.553c-29.485,28.09-35.012,72.689-27.512,111.007
		c11.153,56.356,42.772,106.37,79.696,149.438c-58.749-44.931-104.123-107.295-130.215-176.417
		c-17.481-47.561-22.441-100.546-9.118-149.771c-32.137,46.263-56.86,98.14-67.951,153.595c0.53-49.656,2.356-99.609,11.621-148.512
		c15.458-82.954,48.768-162.354,96.13-232.119C212.55,228.805,295.207,153.538,395.617,115.516 M552.592,235.159
		c16.691-1.469,33.383,2.763,48.138,10.448c-19.418,25.612-7.908,65.954,21.479,78.339c29.978,14.768,68.445-7.969,71.813-40.761
		c11.437,1.123,22.996,2.899,34.505,1.715c-46.225-5.638-86.752-30.053-129.684-46.116
		C584.284,233.024,567.815,230.619,552.592,235.159 M580.583,287.503c0.162,26.006,18.444,52.025,44.697,57.009
		c21.7,3.714,46.337-4.293,59.537-22.44c-33.358,33.458-95.425,10.56-103.246-34.679L580.583,287.503 M924.066,370.914
		c24.464,45.375,17.335,99.138,4.689,146.894c0.679,0.371,2.022,1.1,2.689,1.469C972.268,480.798,969.244,405.024,924.066,370.914z"
		/>
	<path d="M612.018,251.442c11.535,6.416,22.454,14.053,34.729,19.061c-2.824,12.202,12.769,23.576,21.91,13.2
		c2.974-6.242,9.117-2.195,13.94-0.925c-4.811,22.268-29.349,39.342-51.715,31.312C605.911,305.984,595.178,271.936,612.018,251.442
		z"/>
	<path d="M829.518,347.104c8.364-2.851,26.29,8.314,14.545,15.705c-13.644,6.91-32.149,12.509-46.325,4.751
		C803.522,356.455,817.218,349.362,829.518,347.104z"/>
	<path d="M572.922,764.399c-9.992-53.098-4.737-110.946,22.022-158.542c-7.476,50.298,0.283,102.087,17.703,149.599
		c20.641,55.539,58.169,102.32,96.007,147.055c-34.346-21.392-66.323-46.72-95.266-75.009
		C595.771,809.725,577.19,790.098,572.922,764.399z"/>
	<path d="M513.471,809.294c-5.243-35.481-0.148-72.826,16.914-104.582c-1.345,60.009,14.261,125.505,62.215,165.477
		c-19.455,4.28-41.785,1.528-57.737-11.116C520.638,846.674,516.222,827.132,513.471,809.294z"/>
</g>
</svg>
